<?xml version="1.0" standalone="no"?><!DOCTYPE svg PUBLIC "-//W3C//DTD SVG 1.1//EN" "http://www.w3.org/Graphics/SVG/1.1/DTD/svg11.dtd"><svg t="1545880677532" class="icon" style="" viewBox="0 0 1820 1024" version="1.1" xmlns="http://www.w3.org/2000/svg" p-id="2556" xmlns:xlink="http://www.w3.org/1999/xlink" width="227.5" height="128"><defs><style type="text/css"></style></defs><path d="M1220.456296 512.094815h-31.099259l69.878519 349.487407c0 21.428148-17.351111 38.874074-38.874075 38.874074H599.04c-21.428148 0-38.874074-17.351111-38.874074-38.874074l69.878518-349.487407h-31.099259c-21.428148 0-38.874074-17.351111-38.874074-38.874074v-38.874074c0-21.428148 17.351111-38.874074 38.874074-38.874074h233.054815V201.386667c0-42.856296 34.797037-77.653333 77.653333-77.653334s77.653333 34.797037 77.653334 77.653334v194.18074h233.054814c21.428148 0 38.874074 17.351111 38.874075 38.874074v38.874075c0.094815 21.428148-17.351111 38.779259-38.77926 38.779259zM599.04 861.677037H716.8c-2.654815-3.982222-3.982222-9.007407-3.034074-14.127407l23.608889-172.657778c1.896296-10.524444 11.946667-17.635556 22.471111-15.739259s17.635556 11.946667 15.739259 22.471111L752.071111 854.281481c-0.474074 2.74963-1.517037 5.214815-3.034074 7.395556h471.419259l-77.653333-349.487407H676.788148l-77.748148 349.487407z m349.582222-660.29037c0-21.428148-17.351111-38.874074-38.874074-38.874074-21.428148 0-38.874074 17.351111-38.874074 38.874074v194.18074h77.653333V201.386667z m271.834074 233.054814H599.04v38.874075h621.416296v-38.874075z m0 0" fill="#cdcdcd" p-id="2557"></path></svg>