<?xml version="1.0" standalone="no"?><!DOCTYPE svg PUBLIC "-//W3C//DTD SVG 1.1//EN" "http://www.w3.org/Graphics/SVG/1.1/DTD/svg11.dtd"><svg t="1545808299618" class="icon" style="" viewBox="0 0 1448 1024" version="1.1" xmlns="http://www.w3.org/2000/svg" p-id="2479" xmlns:xlink="http://www.w3.org/1999/xlink" width="90.5" height="64"><defs><style type="text/css"></style></defs><path d="M237.056182 512.547333c0 267.828483 216.379142 485.788811 485.788811 485.788811 269.288039 0 485.788811-217.960328 485.788811-485.788811C1208.512175 244.71885 990.551847 26.758522 722.723364 26.758522c-267.706854 0-485.667181 217.960328-485.667182 485.788811z" fill="#A5A5A5" p-id="2480"></path><path d="M917.330799 742.913885c-108.980164-37.340302-127.71113-49.868155-132.333056-91.830383-1.581185-23.352892-1.581185-24.934078 12.406224-42.083858 15.568595-20.190521 31.13719-48.28697 31.13719-60.693194 0-4.621927 4.621927-7.784297 7.784297-12.406224 15.568595-7.784297 26.515263-63.855565 17.149781-70.058677-1.581185-1.581185-1.581185-20.190521-1.581186-40.502673 1.581185-27.974819 0-42.083858-4.621926-56.071267-4.621927-9.365483-6.203112-27.974819-6.203112-40.502673 0-24.934078-12.406224-49.868155-20.190522-46.705784-13.987409 6.203112-40.502673 6.203112-70.058677 0-68.477491-13.987409-101.195866-4.621927-121.386388 34.29956-4.621927 9.365483-12.406224 21.771707-17.14978 27.974819-13.987409 17.14978-21.771707 62.274379-15.568595 93.411569 1.581185 13.987409 1.581185 24.934078 0 24.934078-9.365483 6.203112 6.203112 70.058677 15.568595 70.058677 1.581185 0 7.784297 12.406224 12.406224 23.352892 6.203112 13.987409 15.568595 32.718375 24.934078 45.124599 15.568595 21.771707 17.14978 21.771707 15.568595 45.124599-1.581185 15.568595-4.621927 26.515263-9.365483 32.718375-13.987409 13.987409-52.908897 32.718375-121.386388 56.071268-37.340302 12.406224-70.058677 24.934078-74.680603 27.974819-12.406224 9.365483-24.934078 37.340302-49.868156 119.926832 84.046086 71.639862 194.607436 115.183276 312.953082 115.183276s228.906996-42.083858 312.953083-113.602091c-23.474522-116.764461-20.312151-110.561349-118.467277-141.698539z" fill="#F9F9F9" p-id="2481"></path></svg>