<?xml version="1.0" standalone="no"?><!DOCTYPE svg PUBLIC "-//W3C//DTD SVG 1.1//EN" "http://www.w3.org/Graphics/SVG/1.1/DTD/svg11.dtd"><svg class="icon" width="64px" height="36.01px" viewBox="0 0 1820 1024" version="1.1" xmlns="http://www.w3.org/2000/svg"><path fill="#707070" d="M1148.207407 170.666667H671.762963c-17.256296 0-32.805926 6.921481-43.140741 18.962963-12.041481 10.334815-18.962963 25.884444-18.962963 43.14074v93.202963c10.334815 0 20.66963 5.214815 27.591111 15.54963 5.214815 10.334815 5.214815 20.66963 0 31.099259-5.214815 10.334815-15.54963 15.54963-27.591111 15.54963v77.653333c10.334815 0 20.66963 5.214815 27.591111 15.54963 5.214815 10.334815 5.214815 20.66963 0 31.099259-5.214815 10.334815-15.54963 15.54963-27.591111 15.54963v77.653333c10.334815 0 20.66963 5.214815 27.591111 15.54963 5.214815 10.334815 5.214815 20.66963 0 31.099259-5.214815 10.334815-15.54963 15.54963-27.591111 15.54963v124.302222c0 34.512593 27.591111 62.103704 62.103704 62.103703H1148.207407c17.256296 0 32.805926-6.921481 43.140741-18.962962 12.041481-12.041481 18.962963-27.591111 18.962963-43.140741v-559.407408c0-34.512593-27.591111-62.103704-62.103704-62.103703z m-100.124444 504.035555c-24.177778 24.177778-119.087407 1.706667-210.583704-91.496296-91.496296-91.496296-115.674074-184.699259-91.496296-210.583704 22.471111-22.471111 48.355556-60.397037 87.988148-10.334815 39.727407 50.062222 20.66963 63.905185-1.706667 86.281482-15.54963 15.54963 17.256296 55.277037 51.768889 89.78963 34.512593 34.512593 74.24 67.318519 89.78963 51.768888 22.471111-22.471111 36.219259-41.434074 86.281481-1.706666 46.648889 37.925926 10.42963 63.81037-12.041481 86.281481z m0 0"  /></svg>