<?xml version="1.0" standalone="no"?><!DOCTYPE svg PUBLIC "-//W3C//DTD SVG 1.1//EN" "http://www.w3.org/Graphics/SVG/1.1/DTD/svg11.dtd"><svg t="1545958581047" class="icon" style="" viewBox="0 0 1820 1024" version="1.1" xmlns="http://www.w3.org/2000/svg" p-id="2176" xmlns:xlink="http://www.w3.org/1999/xlink" width="227.5" height="128"><defs><style type="text/css"></style></defs><path d="M714.903704 711.86963c0-11.757037-9.576296-21.333333-21.333334-21.333334h-73.955555c-11.757037 0-21.333333 9.576296-21.333334 21.333334s9.576296 21.333333 21.333334 21.333333h73.955555c11.757037 0 21.333333-9.481481 21.333334-21.333333z m0 0M619.614815 521.197037h73.955555c11.757037 0 21.333333-9.576296 21.333334-21.333333s-9.576296-21.333333-21.333334-21.333334h-73.955555c-11.757037 0-21.333333 9.576296-21.333334 21.333334s9.576296 21.333333 21.333334 21.333333z m0 0M619.614815 321.991111h73.955555c11.757037 0 21.333333-9.576296 21.333334-21.333333s-9.576296-21.333333-21.333334-21.333334h-73.955555c-11.757037 0-21.333333 9.576296-21.333334 21.333334 0 11.851852 9.576296 21.333333 21.333334 21.333333z m0 0" fill="#CCCCCC" p-id="2177"></path><path d="M1153.801481 172.278519H701.724444c-37.641481 0-68.266667 27.97037-68.266666 62.482962v26.642963h56.13037c7.111111-4.456296 15.644444-7.111111 24.651852-7.111111 25.694815 0 46.459259 20.764444 46.459259 46.45926s-20.764444 46.459259-46.459259 46.459259c-9.102222 0-17.540741-2.654815-24.651852-7.111111h-56.13037v120.414815h56.13037c7.111111-4.456296 15.644444-7.111111 24.651852-7.111112 25.694815 0 46.459259 20.764444 46.459259 46.45926s-20.764444 46.459259-46.459259 46.459259c-9.102222 0-17.540741-2.654815-24.651852-7.111111h-56.13037v133.309629h56.13037c7.111111-4.456296 15.644444-7.111111 24.651852-7.111111 25.694815 0 46.459259 20.764444 46.459259 46.45926s-20.764444 46.459259-46.459259 46.459259c-9.102222 0-17.540741-2.654815-24.651852-7.111111h-56.13037V789.807407c0 34.512593 30.53037 62.482963 68.266666 62.482963h452.077037c37.641481 0 68.266667-27.97037 68.266667-62.482963V234.666667c-0.094815-34.417778-30.625185-62.388148-68.266667-62.388148z m-1.232592 305.967407c-34.417778 106.192593-117.854815 191.81037-223.288889 229.167407-8.533333 3.034074-17.445926 4.551111-26.453333 4.551111-21.143704 0-41.718519-8.533333-56.414815-23.514074l-19.437037-19.721481c-10.05037-10.145185-15.54963-23.608889-15.54963-37.831111 0-20.29037 11.282963-38.684444 29.392593-47.976297l55.845926-28.728888c13.653333-7.016296 31.383704-4.645926 42.666666 5.783703l6.542223 5.973334c6.352593 5.783704 16.213333 7.205926 23.893333 3.223703 19.057778-9.765926 34.322963-25.031111 44.088889-44.088889 3.982222-7.774815 2.74963-17.351111-3.223704-23.798518l-5.973333-6.542222c-6.447407-7.016296-9.955556-16.023704-9.955556-25.505185 0-5.973333 1.422222-11.946667 4.171852-17.256297l28.728889-55.845926c9.291852-18.10963 27.685926-29.297778 47.976296-29.297777 11.946667 0 23.22963 3.792593 32.711111 10.998518l16.971852 12.98963c26.642963 20.385185 37.641481 55.466667 27.306667 87.419259z m0 0" fill="#CCCCCC" p-id="2178"></path><path d="M1105.635556 416.616296l-16.971852-12.989629c-3.792593-2.844444-8.248889-4.361481-12.98963-4.361482-8.154074 0-15.454815 4.551111-19.152593 11.757037l-28.728888 55.845926c-0.379259 0.758519-0.568889 1.611852-0.568889 2.465185 0 1.706667 0.758519 2.939259 1.422222 3.602963l5.973333 6.542223c15.075556 16.402963 18.299259 40.675556 8.154074 60.491851-12.894815 25.031111-32.995556 45.131852-58.026666 58.026667-19.437037 10.05037-44.468148 6.637037-60.586667-8.154074l-6.542222-5.973333c-1.042963-0.948148-3.792593-1.991111-6.068148-0.853334l-55.845926 28.728889c-7.300741 3.697778-11.757037 11.093333-11.757037 19.152593 0 5.688889 2.180741 11.093333 6.257777 15.17037l19.437037 19.721482c12.515556 12.61037 32.237037 17.161481 49.114075 11.282963 95.952593-33.943704 171.899259-111.881481 203.282963-208.592593 5.878519-19.057778-0.568889-39.822222-16.402963-51.863704z m0 0" fill="#CCCCCC" p-id="2179"></path></svg>