<?xml version="1.0" standalone="no"?><!DOCTYPE svg PUBLIC "-//W3C//DTD SVG 1.1//EN" "http://www.w3.org/Graphics/SVG/1.1/DTD/svg11.dtd"><svg class="icon" width="64px" height="36.01px" viewBox="0 0 1820 1024" version="1.1" xmlns="http://www.w3.org/2000/svg"><path fill="#707070" d="M1200.924444 701.62963H619.140741c-27.117037 0-49.303704 22.186667-49.303704 49.303703v52.717037h680.391111V750.933333c0-27.022222-22.186667-49.303704-49.303704-49.303703z m-35.745185-82.204445h-201.955555c-3.602963-8.628148-5.594074-17.635556-5.594074-27.022222 0-28.254815 7.395556-54.044444 33.943703-73.007407 52.811852-28.918519 88.557037-84.859259 88.557037-149.238519 0-93.961481-76.136296-170.097778-170.097777-170.097778-93.961481 0-170.097778 76.136296-170.097778 170.097778 0 64.379259 35.84 120.414815 88.557037 149.238519 26.548148 18.962963 33.943704 44.657778 33.943704 73.007407 0 9.291852-1.991111 18.394074-5.594075 27.022222h-201.955555v61.62963h510.293333v-61.62963zM601.694815 812.183704H1218.37037v12.325926H601.694815v-12.325926z m0 0"  /></svg>