<?xml version="1.0" standalone="no"?><!DOCTYPE svg PUBLIC "-//W3C//DTD SVG 1.1//EN" "http://www.w3.org/Graphics/SVG/1.1/DTD/svg11.dtd"><svg class="icon" width="64px" height="36.01px" viewBox="0 0 1820 1024" version="1.1" xmlns="http://www.w3.org/2000/svg"><path fill="#707070" d="M1175.134815 182.992593H698.405926c-18.394074 0-35.934815 6.826667-48.82963 18.868148-12.98963 12.041481-20.100741 28.444444-20.005926 45.416296v529.351111c0 35.365926 30.435556 64.284444 68.835556 64.284445h476.634074c18.394074 0 35.934815-6.826667 48.82963-18.868149 12.98963-12.041481 20.100741-28.444444 20.005926-45.416296V246.802963c0.094815-35.271111-30.72-63.81037-68.740741-63.81037zM766.672593 287.668148h302.364444c13.368889 0 24.177778 10.808889 24.177778 24.177778s-10.808889 24.177778-24.177778 24.177778H766.672593c-13.368889 0-24.177778-10.808889-24.177778-24.177778 0.094815-13.368889 10.903704-24.177778 24.177778-24.177778z m0 133.025185h181.38074c13.368889 0 24.177778 10.808889 24.177778 24.177778s-10.808889 24.177778-24.177778 24.177778H766.672593c-13.368889 0-24.177778-10.808889-24.177778-24.177778s10.903704-24.177778 24.177778-24.177778z m84.669629 169.244445h-84.669629c-13.368889 0-24.177778-10.808889-24.177778-24.177778s10.808889-24.177778 24.177778-24.177778h84.669629c13.368889 0 24.177778 10.808889 24.177778 24.177778s-10.903704 24.177778-24.177778 24.177778zM1103.17037 747.140741l-76.61037-36.314074L950.044444 747.140741l18.204445-72.533334-56.50963-72.533333h76.610371l38.305185-72.533333 38.305185 72.533333h76.61037l-56.509629 72.533333 18.109629 72.533334z m0 0"  /></svg>