<?xml version="1.0" standalone="no"?><!DOCTYPE svg PUBLIC "-//W3C//DTD SVG 1.1//EN" "http://www.w3.org/Graphics/SVG/1.1/DTD/svg11.dtd"><svg t="1545461632843" class="icon" style="" viewBox="0 0 1820 1024" version="1.1" xmlns="http://www.w3.org/2000/svg" p-id="2342" xmlns:xlink="http://www.w3.org/1999/xlink" width="113.75" height="64"><defs><style type="text/css"></style></defs><path d="M1076.148148 354.228148c0 9.007407-0.568889 17.92-1.801481 26.832593l1.137777-8.343704c-2.37037 17.256296-6.921481 34.038519-13.653333 50.062222l3.128889-7.49037c-6.731852 15.928889-15.454815 30.90963-26.074074 44.562963l4.93037-6.352593c-10.334815 13.368889-22.376296 25.315556-35.65037 35.650371l6.352593-4.930371c-13.653333 10.524444-28.634074 19.342222-44.562963 26.074074l7.49037-3.128889c-16.023704 6.731852-32.900741 11.282963-50.062222 13.653334 2.74963-0.379259 5.594074-0.758519 8.343703-1.137778-17.825185 2.37037-35.84 2.37037-53.57037 0 2.74963 0.379259 5.594074 0.758519 8.343704 1.137778-17.256296-2.37037-34.038519-6.921481-50.062222-13.653334l7.49037 3.128889c-15.928889-6.731852-30.90963-15.454815-44.562963-26.074074l6.352593 4.930371c-13.368889-10.334815-25.315556-22.376296-35.650371-35.650371l4.930371 6.352593c-10.524444-13.653333-19.342222-28.634074-26.074075-44.562963l3.128889 7.49037c-6.731852-16.023704-11.282963-32.900741-13.653333-50.062222l1.137778 8.343704c-2.37037-17.825185-2.37037-35.84 0-53.570371l-1.137778 8.343704c2.37037-17.256296 6.921481-34.038519 13.653333-50.062222l-3.128889 7.49037c6.731852-15.928889 15.454815-30.90963 26.074075-44.562963l-4.930371 6.352593c10.334815-13.368889 22.376296-25.315556 35.650371-35.650371l-6.352593 4.930371c13.653333-10.524444 28.634074-19.342222 44.562963-26.074074l-7.49037 3.128889c16.023704-6.731852 32.900741-11.282963 50.062222-13.653334l-8.343704 1.137778c17.825185-2.37037 35.84-2.37037 53.57037 0l-8.343703-1.137778c17.256296 2.37037 34.038519 6.921481 50.062222 13.653334l-7.49037-3.128889c15.928889 6.731852 30.90963 15.454815 44.562963 26.074074l-6.352593-4.930371c13.368889 10.334815 25.315556 22.376296 35.65037 35.650371l-4.93037-6.352593c10.524444 13.653333 19.342222 28.634074 26.074074 44.562963l-3.128889-7.49037c6.731852 16.023704 11.282963 32.900741 13.653333 50.062222l-1.137777-8.343704c1.137778 8.817778 1.801481 17.825185 1.801481 26.737778 0 17.066667 14.222222 31.288889 31.288889 31.288889s31.383704-14.222222 31.288889-31.288889c-0.18963-66.74963-29.961481-132.740741-81.540741-175.502222-26.453333-21.902222-56.794074-38.305185-90.168889-47.028148-34.702222-9.102222-70.826667-9.386667-105.908148-2.465185-17.066667 3.413333-33.185185 9.386667-49.114074 16.402963-13.368889 5.973333-25.979259 13.463704-37.736296 22.186666-27.306667 20.29037-50.441481 45.416296-66.939259 75.377778-32.521481 59.164444-38.115556 133.499259-11.946667 196.171852 6.637037 15.834074 14.127407 31.004444 23.988148 45.037037 9.765926 13.842963 20.66963 26.927407 33.09037 38.305185 25.220741 23.22963 55.087407 40.485926 87.703704 50.915556 16.782222 5.404444 34.322963 8.248889 51.768889 9.765926 18.014815 1.517037 35.84 0.094815 53.665185-2.465186 14.791111-2.085926 29.392593-5.973333 43.330371-11.377777 15.928889-6.162963 31.383704-13.558519 45.605925-23.04 28.34963-18.868148 52.242963-43.33037 70.162963-72.248889 9.007407-14.506667 16.023704-30.340741 21.712593-46.45926 5.878519-16.687407 8.912593-33.848889 10.903704-51.389629 0.853333-7.395556 1.232593-14.791111 1.232592-22.281482 0-17.066667-14.317037-31.288889-31.288889-31.288889-16.877037 0.094815-31.099259 14.317037-31.099259 31.383704z m0 0" fill="#707070" p-id="2343"></path><path d="M1297.73037 868.408889c-5.214815-68.077037-27.780741-134.542222-68.645926-189.724445-19.816296-26.737778-42.287407-50.820741-68.551111-71.30074-26.548148-20.764444-54.897778-38.305185-85.902222-51.57926-31.952593-13.653333-64.758519-23.703704-99.176296-28.918518-35.65037-5.30963-71.49037-6.921481-107.330371-3.223704-68.171852 7.016296-134.731852 29.582222-190.767407 69.404445-54.044444 38.4-98.607407 90.168889-125.060741 151.324444-8.343704 19.342222-15.54963 39.063704-20.574815 59.543704-5.214815 21.048889-8.343704 42.761481-10.05037 64.474074-1.327407 17.066667 15.265185 31.288889 31.288889 31.288889 8.248889 0 16.308148-3.318519 22.091852-9.197037 6.257778-6.162963 8.533333-13.558519 9.197037-22.091852 0.568889-6.921481 1.232593-13.842963 2.180741-20.764445l-1.137778 8.343704c4.077037-29.487407 11.851852-58.311111 23.419259-85.712592l-3.128889 7.49037c10.998519-25.884444 25.220741-50.251852 42.382222-72.533333l-4.93037 6.352592c17.635556-22.85037 38.21037-43.33037 60.965926-60.965926l-6.352593 4.930371c24.177778-18.678519 50.631111-34.038519 78.791112-45.985186l-7.490371 3.128889c30.53037-12.894815 62.767407-21.522963 95.573333-26.074074l-8.343703 1.137778c35.176296-4.740741 70.826667-4.740741 105.908148 0l-8.343704-1.137778c32.900741 4.456296 65.137778 13.179259 95.762963 26.074074l-7.49037-3.128889c28.16 11.946667 54.708148 27.306667 78.980741 45.890371l-6.352593-4.930371c22.85037 17.635556 43.52 38.115556 61.25037 60.965926l-4.93037-6.352592c17.445926 22.565926 31.857778 47.217778 42.951111 73.386666l-3.128889-7.49037c11.567407 27.401481 19.342222 56.32 23.324445 85.807407l-1.137778-8.343703c0.853333 6.542222 1.517037 13.179259 2.085926 19.721481 0.663704 8.533333 2.939259 15.928889 9.197037 22.186667 5.878519 5.878519 13.842963 9.197037 22.186666 9.197037 16.023704 0.094815 32.616296-14.222222 31.288889-31.194074z m0 0" fill="#707070" p-id="2344"></path></svg>