<?xml version="1.0" standalone="no"?><!DOCTYPE svg PUBLIC "-//W3C//DTD SVG 1.1//EN" "http://www.w3.org/Graphics/SVG/1.1/DTD/svg11.dtd"><svg class="icon" width="64px" height="36.01px" viewBox="0 0 1820 1024" version="1.1" xmlns="http://www.w3.org/2000/svg"><path fill="#707070" d="M1220.456296 524.8c-1.611852-0.094815-3.223704-0.18963-4.835555-0.18963h-116.527408c-32.142222 0-58.216296 26.074074-58.216296 58.216297s26.074074 58.216296 58.216296 58.216296h116.527408c1.611852 0 3.223704-0.094815 4.835555-0.18963v97.28c0 32.142222-26.074074 58.216296-58.216296 58.216297H657.351111c-32.142222 0-58.216296-26.074074-58.216296-58.216297V427.52c0-32.142222 26.074074-58.216296 58.216296-58.216296h504.888889c32.142222 0 58.216296 26.074074 58.216296 58.216296v97.28zM1174.945185 340.100741h-489.244444c5.878519-4.361481 12.61037-7.49037 19.721481-9.386667L1084.871111 230.4c31.004444-8.248889 62.957037 9.955556 71.300741 40.580741l18.773333 69.12z"  /><path fill="#707070" d="M1214.767407 549.736296c-3.602963-3.602963-8.628148-5.688889-13.748148-5.688889h-101.925926c-13.842963 0-26.737778 7.395556-33.659259 19.437037-6.921481 12.041481-6.921481 26.832593 0 38.874075s19.721481 19.437037 33.659259 19.437037h101.925926c5.12 0 10.05037-2.085926 13.748148-5.688889 3.602963-3.602963 5.688889-8.533333 5.688889-13.748148v-38.874075c0-5.214815-1.991111-10.145185-5.688889-13.748148z m-110.743703 57.362963c-13.368889 0-24.272593-10.903704-24.272593-24.272592 0-13.368889 10.903704-24.272593 24.272593-24.272593 13.368889 0 24.272593 10.903704 24.272592 24.272593 0 13.463704-10.903704 24.272593-24.272592 24.272592z"  /></svg>